<?xml version="1.0" encoding="UTF-8" standalone="no"?>
<!-- Created with Inkscape (http://www.inkscape.org/) -->

<svg
   width="20mm"
   height="15.5mm"
   viewBox="0 0 20 15.5"
   version="1.1"
   id="svg773"
   inkscape:version="1.2.2 (b0a8486541, 2022-12-01)"
   sodipodi:docname="echar2.svg"
   xmlns:inkscape="http://www.inkscape.org/namespaces/inkscape"
   xmlns:sodipodi="http://sodipodi.sourceforge.net/DTD/sodipodi-0.dtd"
   xmlns="http://www.w3.org/2000/svg"
   xmlns:svg="http://www.w3.org/2000/svg">
  <sodipodi:namedview
     id="namedview373"
     pagecolor="#505050"
     bordercolor="#eeeeee"
     borderopacity="1"
     inkscape:showpageshadow="0"
     inkscape:pageopacity="0"
     inkscape:pagecheckerboard="0"
     inkscape:deskcolor="#505050"
     inkscape:document-units="mm"
     showgrid="false"
     inkscape:zoom="4.395741"
     inkscape:cx="58.806922"
     inkscape:cy="25.592955"
     inkscape:window-width="1920"
     inkscape:window-height="1006"
     inkscape:window-x="0"
     inkscape:window-y="0"
     inkscape:window-maximized="1"
     inkscape:current-layer="g1142" />
  <defs
     id="defs770" />
  <g
     id="layer1">
    <g
       id="g1142"
       transform="matrix(0.03588514,0,0,0.03410487,-7.0752567,-7.8180803)"
       style="overflow:hidden;fill:currentColor">
      <ellipse
         style="opacity:0.855626;fill:#ffffff;fill-rule:evenodd;stroke:none;stroke-width:43.1352;stroke-linecap:square"
         id="path449"
         cx="512.5"
         cy="463.08246"
         rx="196.24635"
         ry="193.25383" />
      <path
         d="m 512.5,254.6 c -114.5,0 -207.6,93.1 -207.6,207.6 0,114.5 93.1,207.6 207.6,207.6 114.5,0 207.6,-93.1 207.6,-207.6 0,-114.5 -93.1,-207.6 -207.6,-207.6 z m 0,395.1 c -103.4,0 -187.6,-84.1 -187.6,-187.6 0,-103.4 84.1,-187.6 187.6,-187.6 103.4,0 187.6,84.1 187.6,187.6 0,103.5 -84.2,187.6 -187.6,187.6 z"
         fill="#06F3FF"
         id="path916"
         style="fill:#ff6600" />
      <path
         d="m 595.9,477.5 -6.3,13 -23.9,-69.8 c -1,-3.1 -4,-5.1 -7.2,-5.1 h -0.1 c -3.3,0.1 -6.1,2.2 -7.1,5.4 L 510.7,553.6 492.5,319.8 c -0.3,-3.8 -3.3,-6.8 -7.1,-7 -3.5,-0.6 -7.2,2.4 -7.9,6.1 l -34,173.1 -15.3,-27.8 c -1,-1.8 -2.8,-3.2 -4.8,-3.7 -2,-0.5 -4.2,-0.1 -6,1 l -36.5,24.2 -6.5,-1.7 c -4.1,-1.2 -8.2,1.3 -9.3,5.4 -1.1,4 1.3,8.2 5.4,9.3 l 9.7,2.6 c 2.2,0.6 4.3,0.2 6.1,-1 l 32.6,-21.6 21.4,38.8 c 1.5,2.8 4.6,4.3 7.8,3.8 3.1,-0.5 5.6,-2.9 6.3,-6 l 27.4,-139.3 17,218.5 c 0.3,3.6 3.1,6.5 6.7,7 0.3,0.1 0.6,0.1 0.8,0.1 3.3,0 6.3,-2.2 7.2,-5.4 l 45.4,-148.4 22.5,65.2 c 1,2.9 3.6,4.9 6.7,5.1 3,0.1 5.9,-1.6 7.2,-4.3 l 12,-25.2 51.7,2.6 c 4.4,0.6 7.7,-3 7.9,-7.2 0.2,-4.2 -3,-7.7 -7.2,-7.9 L 603,473.2 c -2.9,-0.1 -5.8,1.6 -7.1,4.3 z"
         fill="#005BFF"
         id="path918"
         style="fill:#ff6600" />
    </g>
  </g>
</svg>
