<?xml version="1.0" encoding="UTF-8" standalone="no"?>
<!-- Created with Inkscape (http://www.inkscape.org/) -->

<svg
   width="20mm"
   height="15.5mm"
   viewBox="0 0 20 15.5"
   version="1.1"
   id="svg773"
   inkscape:version="1.2.2 (b0a8486541, 2022-12-01)"
   sodipodi:docname="echar3.svg"
   xmlns:inkscape="http://www.inkscape.org/namespaces/inkscape"
   xmlns:sodipodi="http://sodipodi.sourceforge.net/DTD/sodipodi-0.dtd"
   xmlns="http://www.w3.org/2000/svg"
   xmlns:svg="http://www.w3.org/2000/svg">
  <sodipodi:namedview
     id="namedview373"
     pagecolor="#505050"
     bordercolor="#eeeeee"
     borderopacity="1"
     inkscape:showpageshadow="0"
     inkscape:pageopacity="0"
     inkscape:pagecheckerboard="0"
     inkscape:deskcolor="#505050"
     inkscape:document-units="mm"
     showgrid="false"
     inkscape:zoom="6.2165165"
     inkscape:cx="56.703783"
     inkscape:cy="29.518139"
     inkscape:window-width="1920"
     inkscape:window-height="1006"
     inkscape:window-x="0"
     inkscape:window-y="0"
     inkscape:window-maximized="1"
     inkscape:current-layer="layer1" />
  <defs
     id="defs770" />
  <g
     id="layer1">
    <path
       id="path1472"
       style="opacity:0.855626;fill:#d45500;fill-rule:evenodd;stroke:#d45500;stroke-width:0.370909;stroke-linecap:square"
       d="m 10.930311,0.71064378 c -4.2936421,-4e-5 -7.7743901,3.16899992 -7.7744471,7.07822992 -2.6e-5,3.9092903 3.480746,7.0784103 7.7744471,7.0783703 2.822419,-2.8e-4 5.366259,-1.30756 6.745437,-3.37593 -0.309941,-0.0102 -0.579776,-0.17359 -0.73655,-0.41729 -1.236964,1.87457 -3.48818,3.09624 -6.008887,3.09646 -3.8710611,6e-5 -7.0092221,-2.85712 -7.0091851,-6.3816103 1.29e-4,-3.52438 3.138241,-6.38139 7.0091851,-6.38133 3.870836,8e-5 7.008781,2.85705 7.00891,6.38133 -2.24e-4,0.13753 -0.0053,0.27501 -0.01531,0.41223 h -7.149196 c -0.111003,-0.37733 -0.457262,-0.63648 -0.8505801,-0.6366 -0.489802,-2e-5 -0.886895,0.39701 -0.886949,0.88681 -9.8e-5,0.48991 0.39704,0.88711 0.886949,0.88709 0.3094531,-2e-5 0.5965241,-0.16133 0.7574691,-0.42563 h 7.147552 c 0.300069,0.003 0.379209,0.0109 0.889547,0.006 -0.0051,-0.47888 -0.01412,-0.65412 -0.01422,-1.13033 -5.7e-5,-3.90914 -3.480638,-7.07813992 -7.774172,-7.07822992 z M 9.9241349,8.0070937 c 0.2453631,-10e-6 0.4442941,0.19886 0.4443641,0.44422 8.1e-5,0.24547 -0.198894,0.44451 -0.4443641,0.4445 -0.245416,-7e-5 -0.444307,-0.19908 -0.444226,-0.4445 7e-5,-0.24531 0.198917,-0.44415 0.444226,-0.44422 z m 7.7641911,1.72016 a 0.8393771,0.8393771 0 0 0 -0.839368,0.8393703 0.8393771,0.8393771 0 0 0 0.839368,0.83951 0.8393771,0.8393771 0 0 0 0.839369,-0.83951 0.8393771,0.8393771 0 0 0 -0.839369,-0.8393703 z m 0,0.4189303 a 0.42053912,0.42053912 0 0 1 0.420573,0.42044 0.42053912,0.42053912 0 0 1 -0.420573,0.42057 0.42053912,0.42053912 0 0 1 -0.420436,-0.42057 0.42053912,0.42053912 0 0 1 0.420436,-0.42044 z" />
    <path
       id="path410"
       style="opacity:0.855626;fill:#333333;fill-rule:evenodd;stroke:#333333;stroke-width:0.239652;stroke-linecap:square"
       d="m 10.930174,3.2156237 c -2.7742721,-5e-5 -5.0232311,2.0475 -5.0232211,4.57339 -1e-5,2.5258903 2.248949,4.5735703 5.0232211,4.5735203 1.304015,-2e-5 2.555478,-0.46201 3.491329,-1.28592 0.08633,0.0273 0.176341,0.0412 0.266891,0.0413 0.489858,3e-5 0.886971,-0.39709 0.88695,-0.88695 2.1e-5,-0.4898503 -0.397092,-0.8869703 -0.88695,-0.8869503 -0.489857,-2e-5 -0.886971,0.3971 -0.886949,0.8869503 2.15e-4,0.0541 0.0054,0.10815 0.01545,0.16134 -0.759,0.69854 -1.796716,1.09779 -2.886721,1.09861 -2.2455561,-10e-6 -4.0660261,-1.6573803 -4.0661311,-3.7018903 -2e-6,-2.04458 1.820498,-3.70203 4.0661311,-3.70203 1.784623,-10e-6 3.373721,1.03091 3.626962,1.90502 h -3.800604 c -0.127855,-0.34947 -0.460271,-0.58196 -0.8323961,-0.58218 -0.489857,-3e-5 -0.886971,0.39709 -0.886949,0.88695 -2.2e-5,0.48985 0.397092,0.88697 0.886949,0.88695 0.3259281,0 0.6255981,-0.17876 0.7804391,-0.46556 1.603007,-0.035 4.695758,-0.0491 4.810747,-0.0424 0.06245,0.001 0.135604,0.001 0.226967,-9.5e-4 -0.193426,-1.80669 -2.115273,-3.45904 -4.812115,-3.4592 z m -1.0060391,2.63678 c 0.2454181,0 0.4443691,0.19895 0.4443641,0.44437 5e-6,0.24541 -0.198946,0.44436 -0.4443641,0.44436 -0.245364,-7e-5 -0.444232,-0.199 -0.444226,-0.44436 -6e-6,-0.24537 0.198862,-0.4443 0.444226,-0.44437 z m 4.7642591,3.93433 c 0.245364,-10e-6 0.444294,0.19886 0.444364,0.4442303 5e-6,0.24541 -0.198946,0.44436 -0.444364,0.44436 -0.245364,-7e-5 -0.444232,-0.199 -0.444226,-0.44436 7e-5,-0.2453203 0.198916,-0.4441603 0.444226,-0.4442303 z"
       sodipodi:nodetypes="ccscccccccccccccccccccccccccccc" />
  </g>
</svg>
